<svg clip-rule="evenodd" fill-rule="evenodd" height="512" image-rendering="optimizeQuality" shape-rendering="geometricPrecision" text-rendering="geometricPrecision" viewBox="0 0 4335 4335" width="512" xmlns="http://www.w3.org/2000/svg"><g id="Layer_x0020_1"><path d="m814 3332h-401c-32 0-58-26-58-58v-3217c0-31 26-57 58-57h2498c31 0 57 26 57 57v400c0 32-26 58-57 58h-2039v2759c0 32-26 58-58 58z" fill="#b8b8e6"/><path d="m2702 3725h-1888c-32 0-58-26-58-58v-3210c0-32 26-58 58-58h2498c32 0 58 26 58 58v2600c0 32-26 58-58 58-305 0-553 248-553 552 0 32-25 58-57 58z" fill="#ccf"/><path d="m3312 4335c-368 0-668-299-668-668 0-368 300-668 668-668s668 300 668 668c0 369-300 668-668 668z" fill="#ff3131"/><path d="m2524 915h-922c-32 0-57-26-57-58s25-57 57-57h922c32 0 57 25 57 57s-25 58-57 58zm33 2410h-1386c-31 0-57-26-57-58s26-58 57-58h1386c32 0 58 26 58 58s-26 58-58 58zm398-344h-1784c-31 0-57-26-57-58s26-58 57-58h1784c32 0 57 26 57 58s-25 58-57 58zm0-345h-1784c-31 0-57-26-57-57 0-32 26-58 57-58h1784c32 0 57 26 57 58 0 31-25 57-57 57zm0-344h-1784c-31 0-57-26-57-58s26-57 57-57h1784c32 0 57 25 57 57s-25 58-57 58zm0-344h-1784c-31 0-57-26-57-58s26-58 57-58h1784c32 0 57 26 57 58s-25 58-57 58zm0-344h-1784c-31 0-57-26-57-58s26-58 57-58h1784c32 0 57 26 57 58s-25 58-57 58zm0-345h-1784c-31 0-57-26-57-57 0-32 26-58 57-58h1784c32 0 57 26 57 58 0 31-25 57-57 57z" fill="#333"/><g fill="#fff"><path d="m3312 4135c-32 0-58-26-58-58v-428c0-32 26-57 58-57s58 25 58 57v428c0 32-26 58-58 58z"/><path d="m3312 3510c-86 0-155-70-155-155 0-86 69-155 155-155 85 0 155 69 155 155 0 85-70 155-155 155z"/></g></g></svg>