<svg id="Layer_1" viewBox="0 0 512 512" xmlns="http://www.w3.org/2000/svg" data-name="Layer 1"><path d="m195.227 13.215c0-2.761 2.239-5 5-5s5 2.239 5 5v10.466c0 2.761-2.239 5-5 5s-5-2.239-5-5zm-80.5 77.403c-2.75 0-4.98-2.23-4.98-4.98s2.23-4.98 4.98-4.98l11.972-.02c2.751 0 4.98 2.23 4.98 4.98s-2.23 4.98-4.98 4.98zm26.032-55.943c-1.845-2.038-1.687-5.186.351-7.031s5.187-1.687 7.031.351l7.069 7.822c1.844 2.038 1.687 5.187-.352 7.031s-5.187 1.687-7.031-.351l-7.069-7.822zm144.968 45.982c2.751 0 4.98 2.23 4.98 4.98s-2.23 4.98-4.98 4.98l-11.972-.02c-2.75 0-4.98-2.23-4.98-4.98s2.23-4.98 4.98-4.98zm-33.414-52.662c1.845-2.038 4.993-2.196 7.031-.351 2.038 1.844 2.196 4.993.351 7.031l-7.069 7.822c-1.844 2.038-4.993 2.196-7.031.351s-2.196-4.993-.352-7.031l7.069-7.822z" fill="#fcdb35" fill-rule="evenodd"/><path d="m131.74 115.09h334.906v198.175h-334.906z" fill="#e9e9ff"/><path d="m131.74 115.09h10.121v198.175h-10.121z" fill="#d1d1f0"/><g fill-rule="evenodd"><path d="m268.67 150.493c-2.761 0-5-2.239-5-5s2.239-5 5-5h163.83c2.761 0 5 2.239 5 5s-2.239 5-5 5zm-102.784 137.371c-2.761 0-5-2.239-5-5s2.239-5 5-5h205.927c2.761 0 5 2.239 5 5s-2.239 5-5 5zm0-27.474c-2.761 0-5-2.239-5-5s2.239-5 5-5h205.927c2.761 0 5 2.239 5 5s-2.239 5-5 5zm0-27.474c-2.761 0-5-2.239-5-5s2.239-5 5-5h266.614c2.761 0 5 2.239 5 5s-2.239 5-5 5zm90-27.474c-2.761 0-5-2.239-5-5s2.239-5 5-5h176.614c2.761 0 5 2.239 5 5s-2.239 5-5 5zm0-27.474c-2.761 0-5-2.239-5-5s2.239-5 5-5h176.614c2.761 0 5 2.239 5 5s-2.239 5-5 5z" fill="#a3a3cc"/><path d="m230.137 189.034c0 5.768-4.72 10.489-10.489 10.489h-38.621c-5.769 0-10.489-4.72-10.489-10.489v-20.651c0-28.867-29.8-36.976-29.8-75.77 0-35.594 29.8-53.391 59.6-53.391s59.6 17.797 59.6 53.391c0 38.794-29.8 46.903-29.8 75.77v20.651z" fill="#fcdb35"/><path d="m230.137 189.034c0 5.768-4.72 10.489-10.489 10.489h-26.777c-5.769 0-10.489-4.72-10.489-10.489v-23.358c0-28.867-29.8-36.976-29.8-75.77 0-26.579 16.617-43.232 37.441-49.964 3.407-.478 6.86-.72 10.313-.72 29.8 0 59.6 17.797 59.6 53.391 0 38.794-29.8 46.903-29.8 75.77v20.651z" fill="#ffeb87"/><path d="m184.397 184.438h31.879v20.917c0 4.414-3.613 8.027-8.027 8.027h-15.824c-4.414 0-8.028-3.612-8.028-8.027z" fill="#495586"/><path d="m196.242 184.438h20.035v20.917c0 4.414-3.613 8.027-8.027 8.027h-6.862c-3.002-1.165-5.146-4.088-5.146-7.489z" fill="#5d689e"/><path d="m205.085 169.353v-39.48c-1.576.18-3.163.271-4.748.271s-3.172-.09-4.748-.271v39.48h-9.961v-40.528s-.019 0-.019 0c0-.471-.003-.936-.008-1.397-.804-.311-1.597-.648-2.378-1.013-7.235-3.375-13.412-9.019-17.104-16.936-4.212-9.031-4.117-16.387-1.792-20.928 1.877-3.666 5.042-5.734 8.839-5.93 3.273-.169 6.852 1.167 10.139 4.228 5.398 5.028 10.601 15.574 11.962 32.888 1.672.27 3.371.406 5.072.406s3.4-.135 5.072-.406c1.361-17.314 6.564-27.861 11.962-32.888 3.287-3.061 6.865-4.396 10.138-4.228 3.797.196 6.962 2.264 8.839 5.93 2.324 4.541 2.42 11.896-1.792 20.928-3.692 7.916-9.869 13.561-17.104 16.936-.781.364-1.574.702-2.378 1.013-.005.461-.008.926-.008 1.397h-.02v40.528s-9.961 0-9.961 0zm19.083-75.199c-3.509 3.267-6.906 10.21-8.361 21.827 4.08-2.467 7.505-6.042 9.686-10.719 2.77-5.938 3.065-10.074 1.988-12.178-.163-.318-.334-.493-.48-.5-.67-.035-1.646.465-2.834 1.571zm-48.988 11.107c2.182 4.678 5.607 8.252 9.687 10.719-1.455-11.617-4.852-18.559-8.361-21.827-1.188-1.106-2.164-1.606-2.834-1.571-.146.007-.317.182-.48.5-1.077 2.104-.781 6.24 1.988 12.178z" fill="#fda02f"/><path d="m230.137 189.034c0 5.768-4.72 10.489-10.489 10.489h-38.622c-5.769 0-10.488-4.72-10.488-10.489v-19.681h59.599z" fill="#5d689e"/><path d="m230.137 189.034c0 5.764-4.713 10.481-10.475 10.489h-26.791c-5.769 0-10.489-4.72-10.489-10.489v-19.681h47.754v19.681z" fill="#7986bf"/></g><path d="m170.537 169.353h59.599v15.085h-59.599z" fill="#7986bf"/><path d="m182.382 169.353h47.754v15.085h-47.754z" fill="#909cd1"/><g><g fill-rule="evenodd"><path d="m469.386 352.318 25.454 53.741-19.857-6.179-9.648 18.423-20.076-55.972z" fill="#e8333c"/><path d="m469.386 352.318 22.45 47.399-14.418-4.487-8.637 16.492-18.468-51.489z" fill="#fb545c"/><path d="m441.125 362.36-20.002 55.999-9.672-18.41-19.849 6.205 25.382-53.775z" fill="#e8333c"/><path d="m441.125 362.36-17.439 48.825-6.796-12.936-18.124 5.666 23.328-49.423z" fill="#fb545c"/><path d="m455.781 271.774c3.388 4.77 8.853 7.034 14.622 6.057 5.363-.909 9.848.071 13.794 4.018s4.926 8.43 4.018 13.795c-.977 5.769 1.286 11.234 6.056 14.622 4.436 3.15 6.913 7.013 6.913 12.596s-2.478 9.445-6.913 12.595c-4.77 3.388-7.034 8.853-6.057 14.622.909 5.363-.071 9.848-4.018 13.794-3.948 3.948-8.43 4.926-13.795 4.018-5.769-.977-11.234 1.286-14.622 6.056-3.15 4.436-7.013 6.914-12.595 6.914s-9.445-2.478-12.595-6.914c-3.388-4.77-8.853-7.034-14.622-6.057-5.363.909-9.848-.071-13.795-4.018s-4.926-8.43-4.018-13.795c.977-5.769-1.286-11.234-6.057-14.622-4.436-3.15-6.914-7.013-6.914-12.595s2.478-9.445 6.914-12.596c4.77-3.388 7.034-8.853 6.057-14.622-.91-5.363.071-9.848 4.017-13.794 3.948-3.948 8.43-4.926 13.795-4.018 5.769.977 11.234-1.286 14.622-6.057 3.15-4.436 7.013-6.914 12.595-6.914s9.445 2.478 12.595 6.914z" fill="#f9ac00"/><path d="m455.781 271.773c3.388 4.77 8.853 7.034 14.622 6.057 5.363-.91 9.848.071 13.794 4.018 3.948 3.948 4.926 8.43 4.018 13.794-.977 5.769 1.286 11.234 6.056 14.622 4.435 3.15 6.914 7.013 6.914 12.596s-2.478 9.445-6.914 12.595c-4.77 3.388-7.034 8.853-6.057 14.622.91 5.363-.071 9.848-4.018 13.794-3.948 3.948-8.43 4.926-13.794 4.018-5.769-.977-11.234 1.286-14.622 6.056-2.498 3.516-5.443 5.802-9.337 6.599-3.895-.796-6.84-3.082-9.337-6.599-3.388-4.77-8.853-7.034-14.622-6.057-.247.042-.493.08-.737.113-1.842-.402-3.793-.45-5.78-.113l-.075.012c-2.61-.538-4.991-1.818-7.203-4.03-3.948-3.948-4.926-8.43-4.018-13.795.978-5.769-1.286-11.234-6.056-14.622-4.436-3.15-6.914-7.013-6.914-12.595s2.478-9.445 6.914-12.596c4.77-3.388 7.034-8.853 6.057-14.622-.909-5.363.071-9.848 4.018-13.794 2.213-2.213 4.594-3.493 7.204-4.03l.074.012c1.986.336 3.937.289 5.779-.114.244.034.49.072.737.114 5.769.977 11.234-1.286 14.622-6.057 2.498-3.516 5.443-5.802 9.337-6.599 3.894.797 6.84 3.083 9.337 6.599z" fill="#fdc72e"/></g><circle cx="448.012" cy="322.912" fill="#f9ac00" r="27.757" transform="matrix(.707 -.707 .707 .707 -97.114 411.371)"/><circle cx="443.186" cy="322.86" fill="#f3f3ff" r="27.757" transform="matrix(.998 -.062 .062 .998 -19.205 28.163)"/></g><g fill-rule="evenodd"><path d="m174.997 489.061 13.856 7.88c17.885 10.326 28.695-11.63 14.723-19.766l7.779 4.492c6.214 3.588 14.233 1.439 17.821-4.775 3.575-6.192 1.44-14.202-4.734-17.797l4.162 2.403c6.616 3.82 15.155 1.532 18.975-5.085 3.803-6.589 1.535-15.113-5.03-18.943l.013.008 4.135 2.387c6.616 3.82 15.156 1.532 18.975-5.085 1.9-3.29 2.273-7.105 1.366-10.534-1.081-2.799-2.03-5.26-6.45-8.44l-41.74-24.099c-22.088-17.723-34.04-27.915-50.54-44.673-28.668-20.605-49.301 5.027-87.229-16.304l-26.978-15.174c-24.074 19.615-37.734 44.165-29.269 84.198l48.179 24.836 12.421 13.366 89.565 51.104z" fill="#dea368"/><g fill="#d19458"><path d="m263.318 437.799c.902-.872 1.698-1.881 2.354-3.018 1.899-3.29 2.273-7.105 1.366-10.535-1.081-2.799-2.03-5.26-6.45-8.44l-41.74-24.099c-22.088-17.723-34.04-27.915-50.54-44.673-3.58-2.573-7.034-4.425-10.412-5.737l-36.468 22.737c-13.063 8.144-12.741 24.923-1.403 34.312 6.6 5.465 14.266 8.631 22.914 8.294 17.277-.672 30.9-15.016 46.57-15.109 8.941-.053 16.681 4.85 24.15 9.163l41.261 23.822c3.53 2.256 10.554 6.264 8.398 13.283z"/><path d="m209.565 490.67c1.232-4.737-.381-10.229-5.989-13.495l7.779 4.492.014.008-12.404-7.161c-2.071-1.196-4.741-.48-5.937 1.591-1.194 2.069-.478 4.743 1.591 5.937l14.945 8.628z"/><path d="m230.699 472.744c.957-5.259-1.399-10.821-6.257-13.649l4.162 2.403h.002s-18.944-10.936-18.944-10.936c-2.072-1.196-4.741-.48-5.937 1.591-1.194 2.069-.478 4.743 1.591 5.937l25.384 14.655z"/><path d="m249.295 451.402c.742-5.412-1.761-11.018-6.737-13.926l-17.995-10.389c-2.071-1.196-4.741-.48-5.937 1.591-1.194 2.069-.478 4.743 1.591 5.937l29.077 16.787z"/></g><path d="m83.103 441.99c-3.777 6.542-1.515 14.986 5.028 18.763 6.533 3.772 14.991 1.506 18.763-5.028l9.871-17.098c3.777-6.542 1.515-14.985-5.028-18.763-6.534-3.772-14.991-1.506-18.763 5.028z" fill="#fdd7ad"/><path d="m90.684 461.897c6.041 1.988 12.913-.462 16.21-6.17l9.872-17.099c3.301-5.717 1.989-12.886-2.76-17.124l-23.321 40.393z" fill="#f2c496"/><path d="m154.475 483.197c-3.777 6.542-1.515 14.986 5.028 18.763 6.533 3.772 14.991 1.506 18.763-5.028l9.871-17.098c3.778-6.542 1.515-14.985-5.028-18.763-6.534-3.772-14.991-1.506-18.763 5.027l-9.871 17.098z" fill="#fdd7ad"/><path d="m162.055 503.103c6.041 1.988 12.914-.462 16.21-6.171l9.871-17.098c3.301-5.718 1.989-12.886-2.761-17.124l-23.321 40.393z" fill="#f2c496"/><path d="m127.351 475.234c-3.777 6.542-1.514 14.986 5.028 18.763 6.533 3.772 14.991 1.506 18.763-5.027l13.204-22.871c3.778-6.542 1.515-14.985-5.027-18.762-6.534-3.772-14.991-1.506-18.763 5.027l-13.204 22.87z" fill="#fdd7ad"/><path d="m134.932 495.14c6.041 1.989 12.914-.462 16.21-6.171l13.204-22.87c3.301-5.717 1.989-12.886-2.761-17.124z" fill="#f2c496"/><path d="m100.762 466.346c-3.777 6.542-1.514 14.986 5.028 18.763 6.533 3.772 14.991 1.506 18.763-5.028l16.002-27.718c3.778-6.542 1.515-14.985-5.027-18.763-6.534-3.772-14.991-1.506-18.763 5.028z" fill="#fdd7ad"/><path d="m108.343 486.251c6.03 1.985 12.889-.452 16.192-6.139l16.021-27.749c3.301-5.717 1.989-12.886-2.761-17.124l-29.452 51.013z" fill="#f2c496"/><path d="m319.971 399.755-52.933 24.49c-1.081-2.799-2.03-5.26-6.45-8.44l-41.74-24.099c-9.12-5.266-17.916-10.621-29.4-10.552-24.982.148-41.764 26.622-62.804 9.199-5.297-4.387-7.282-12.802.275-17.514l44.632-27.827c14.889-9.283 30.916-13.708 47.185-8.346 13.952 4.599 27.741 3.488 40.579-3.653l31.388-17.457c27.052 18.697 38.891 52.753 29.269 84.199z" fill="#fdd7ad"/><path d="m328.762 403.828-13.262 5.632c-1.675.711-3.442.554-4.965-.443s-2.374-2.553-2.393-4.373c-.319-31.496-13.208-57.321-36.075-76.572-1.372-1.155-2.032-2.769-1.859-4.555.172-1.785 1.127-3.243 2.694-4.114l16.914-9.407c2.858-1.589 6.203-1.321 8.771.704 26.748 21.097 40.877 57.908 34.847 87.413-.539 2.637-2.195 4.662-4.673 5.714z" fill="#2a92fa"/><path d="m328.762 403.828-9.136 3.88c-.054-.033-.107-.066-.16-.101-1.614-1.057-2.517-2.707-2.537-4.636-.338-33.394-14.004-60.775-38.248-81.186-1.366-1.15-2.066-2.729-1.995-4.486l13.13-7.303c2.858-1.589 6.203-1.321 8.77.704 26.749 21.097 40.877 57.908 34.848 87.413-.539 2.637-2.195 4.662-4.673 5.714z" fill="#4eb1fc"/><path d="m16.866 403.828 13.262 5.632c1.675.711 3.442.554 4.965-.443 1.522-.997 2.374-2.553 2.392-4.373.319-31.496 13.209-57.321 36.075-76.572 1.372-1.155 2.031-2.769 1.859-4.555-.173-1.785-1.127-3.243-2.694-4.114l-16.913-9.407c-2.858-1.589-6.203-1.321-8.771.704-26.749 21.097-40.877 57.908-34.847 87.413.539 2.637 2.195 4.662 4.673 5.714z" fill="#5d689e"/><path d="m16.866 403.828 9.136 3.88c.053-.033.107-.066.16-.101 1.614-1.057 2.517-2.707 2.537-4.636.338-33.394 14.004-60.775 38.248-81.186 1.366-1.15 2.066-2.729 1.995-4.486l-13.13-7.303c-2.858-1.589-6.203-1.321-8.771.704-26.748 21.097-40.877 57.908-34.847 87.413.539 2.637 2.195 4.662 4.673 5.714z" fill="#7986bf"/></g></svg>