<svg enable-background="new 0 0 512 512" height="512" viewBox="0 0 512 512" width="512" xmlns="http://www.w3.org/2000/svg"><g id="_x31_6_Time_Log"><g><g><path d="m505.748 392.136c0 62.788-50.862 113.65-113.6 113.65-62.789 0-113.65-50.862-113.65-113.65 0-62.738 50.862-113.601 113.65-113.601 62.738.001 113.6 50.863 113.6 113.601z" fill="#faa629"/></g><g><path d="m324.893 459.391c-2.054-2.054-2.054-5.381 0-7.435l47.843-47.846c2.054-2.054 5.381-2.054 7.435 0s2.054 5.381 0 7.435l-47.843 47.846c-2.054 2.054-5.381 2.054-7.435 0z" fill="#36474f"/></g><g><path d="m392.129 375.255c-2.906 0-5.258-2.354-5.258-5.258v-46.141c0-2.904 2.352-5.258 5.258-5.258s5.258 2.354 5.258 5.258v46.141c0 2.903-2.352 5.258-5.258 5.258z" fill="#36474f"/></g><path d="m376.455 376.493c8.66-8.66 22.694-8.66 31.344-.01 8.66 8.66 8.66 22.694 0 31.354-8.65 8.65-22.685 8.65-31.344-.01-8.65-8.649-8.65-22.684 0-31.334z" fill="#d81a60"/><path d="m398.795 39.652v239.07c-2.208-.157-4.417-.21-6.625-.21-62.83 0-113.672 50.895-113.672 113.62 0 17.824 4.101 34.649 11.409 49.633h-186.545c-9.569 0-17.298-7.729-17.298-17.298v-378.348c0-22.03-17.876-39.905-39.906-39.905h319.198c18.454 0 33.439 14.984 33.439 33.438z" fill="#cce0f1"/><path d="m398.795 262.897v15.825c-2.208-.157-4.417-.21-6.625-.21-62.83 0-113.672 50.895-113.672 113.62 0 17.824 4.101 34.649 11.409 49.633h-17.245c-6.415-15.247-9.937-32.019-9.937-49.633 0-71.348 58.045-129.393 129.446-129.393 2.207 0 4.468.052 6.624.158z" opacity=".1"/><path d="m86.064 47.558v169.385h-62.526c-9.547 0-17.286-7.739-17.286-17.286v-153.538c0-22.931 19.3-41.325 42.574-39.819 21.218 1.373 37.238 19.995 37.238 41.258z" fill="#41b3e7"/><g><path d="m352.532 68.447h-217.272c-2.906 0-5.258-2.354-5.258-5.258s2.352-5.258 5.258-5.258h217.272c2.906 0 5.258 2.354 5.258 5.258-.001 2.903-2.352 5.258-5.258 5.258z" fill="#36474f"/></g><g><path d="m352.532 125.717h-217.272c-2.906 0-5.258-2.354-5.258-5.258s2.352-5.258 5.258-5.258h217.272c2.906 0 5.258 2.354 5.258 5.258-.001 2.904-2.352 5.258-5.258 5.258z" fill="#36474f"/></g><g><path d="m352.532 182.987h-217.272c-2.906 0-5.258-2.354-5.258-5.258s2.352-5.258 5.258-5.258h217.272c2.906 0 5.258 2.354 5.258 5.258s-2.352 5.258-5.258 5.258z" fill="#36474f"/></g><g><path d="m352.532 240.26h-217.272c-2.906 0-5.258-2.354-5.258-5.258s2.352-5.258 5.258-5.258h217.272c2.906 0 5.258 2.354 5.258 5.258-.001 2.904-2.352 5.258-5.258 5.258z" fill="#36474f"/></g><g><path d="m288.207 297.531h-152.947c-2.906 0-5.258-2.354-5.258-5.258s2.352-5.258 5.258-5.258h152.947c2.906 0 5.258 2.354 5.258 5.258-.001 2.904-2.352 5.258-5.258 5.258z" fill="#36474f"/></g><g><path d="m259.91 354.804h-124.65c-2.906 0-5.258-2.354-5.258-5.258s2.352-5.258 5.258-5.258h124.65c2.906 0 5.258 2.354 5.258 5.258s-2.352 5.258-5.258 5.258z" fill="#36474f"/></g><g><path d="m259.91 412.074h-124.65c-2.906 0-5.258-2.354-5.258-5.258s2.352-5.258 5.258-5.258h124.65c2.906 0 5.258 2.354 5.258 5.258s-2.352 5.258-5.258 5.258z" fill="#36474f"/></g></g></g></svg>