<?xml version="1.0" encoding="iso-8859-1"?>
<!-- Uploaded to: SVG Repo, www.svgrepo.com, Generator: SVG Repo Mixer Tools -->
<svg version="1.1" id="Layer_1" xmlns="http://www.w3.org/2000/svg" xmlns:xlink="http://www.w3.org/1999/xlink" 
	 viewBox="0 0 512 512" xml:space="preserve">
<path style="fill:#32BEA6;" d="M451.952,436.576H60.048C27.024,436.576,0,409.552,0,376.52V71.976
	c0-33.032,27.024-60.048,60.048-60.048h391.896c33.032,0,60.056,27.024,60.056,60.048V376.52
	C512,409.552,484.976,436.576,451.952,436.576z"/>
<path d="M512,106.432V71.976c0-33.032-27.024-60.048-60.048-60.048H60.048C27.024,11.928,0,38.952,0,71.976v34.456H512z"/>
<circle style="fill:#FC6F58;" cx="58.4" cy="59.184" r="13.424"/>
<circle style="fill:#49C3E8;" cx="96.64" cy="59.184" r="13.424"/>
<circle style="fill:#FFD160;" cx="134.904" cy="59.184" r="13.424"/>
<g>
	<rect x="429.392" y="55.416" style="fill:#FFFFFF;" width="30.416" height="6.824"/>
	<polygon style="fill:#FFFFFF;" points="450.872,79.336 445.728,74.856 459.376,59.176 445.728,43.512 450.872,39.032 
		468.448,59.176 	"/>
	<path style="fill:#FFFFFF;" d="M379.264,80.544H208.336c-11.752,0-21.368-9.616-21.368-21.368l0,0
		c0-11.752,9.616-21.368,21.368-21.368h170.928c11.752,0,21.368,9.616,21.368,21.368l0,0
		C400.632,70.928,391.016,80.544,379.264,80.544z"/>
</g>
<path d="M212.656,69.4l-4.704-19.24h3.744l1.824,8.736c0.48,2.344,0.936,4.8,1.256,6.704h0.056c0.32-2.024,0.856-4.304,1.4-6.736
	l2.08-8.704h3.68l1.92,8.856c0.48,2.28,0.88,4.424,1.16,6.504h0.064c0.336-2.12,0.8-4.304,1.304-6.656l2-8.704h3.576L226.84,69.4
	h-3.76l-2-9.056c-0.496-2.184-0.824-4.016-1.056-6.104h-0.064c-0.336,2.056-0.704,3.92-1.28,6.104l-2.224,9.056
	C216.456,69.4,212.656,69.4,212.656,69.4z"/>
<path d="M237.712,69.4l-4.704-19.24h3.744l1.824,8.736c0.48,2.344,0.936,4.8,1.256,6.704h0.056c0.32-2.024,0.856-4.304,1.4-6.736
	l2.08-8.704h3.68l1.92,8.856c0.48,2.28,0.88,4.424,1.16,6.504h0.064c0.336-2.12,0.8-4.304,1.304-6.656l2-8.704h3.576l-5.176,19.24
	h-3.76l-2-9.056c-0.496-2.184-0.824-4.016-1.056-6.104h-0.064c-0.336,2.056-0.704,3.92-1.28,6.104l-2.224,9.056
	C241.512,69.4,237.712,69.4,237.712,69.4z"/>
<path d="M262.768,69.4l-4.704-19.24h3.744l1.824,8.736c0.48,2.344,0.936,4.8,1.256,6.704h0.056c0.32-2.024,0.856-4.304,1.4-6.736
	l2.08-8.704h3.68l1.92,8.856c0.48,2.28,0.88,4.424,1.16,6.504h0.064c0.336-2.12,0.8-4.304,1.304-6.656l2-8.704h3.576l-5.176,19.24
	h-3.76l-2-9.056c-0.496-2.184-0.824-4.016-1.056-6.104h-0.064c-0.336,2.056-0.704,3.92-1.28,6.104l-2.224,9.056
	C266.568,69.4,262.768,69.4,262.768,69.4z"/>
<path d="M282.064,67.456c0-1.304,0.92-2.256,2.176-2.256c1.28,0,2.176,0.92,2.176,2.256c0,1.296-0.864,2.264-2.176,2.264
	C282.96,69.72,282.064,68.752,282.064,67.456z"/>
<path style="fill:#FFFFFF;" d="M368.032,251.888h-5.296c-5.272-22.296-25.264-39-49.168-39c-5.808,0-11.688,1.28-16.56,2.92
	c-11.696-33.344-43.36-57.296-80.704-57.296c-47.272,0-85.592,38.32-85.592,85.592c0,2.976,0.152,5.912,0.448,8.816
	c-31.072,5.376-54.92,32.56-54.92,65.104c0,36.376,29.76,66.136,66.136,66.136h225.656c36.376,0,66.136-29.76,66.136-66.136
	C434.176,281.648,404.408,251.888,368.032,251.888z"/>
<path style="fill:#E9EDF1;" d="M297.008,215.808c0,0,9.392,17.424,9.392,51.144c0,0,11.456-21.568,11.456-53.888
	C317.856,213.072,308.632,211.792,297.008,215.808z"/>
<polygon points="321.256,372.904 276.216,418.832 276.216,308.008 234.2,308.008 234.2,418.832 189.16,372.904 159.176,402.16 
	255.208,500.072 351.24,402.16 "/>
</svg>