<svg id="Layer_1" enable-background="new 0 0 32 32" height="32" viewBox="0 0 32 32" width="32" xmlns="http://www.w3.org/2000/svg"><g><g><path d="m31 22c0 .96-.583 1.417-1.167 2l-5.833 5.844c-.625.624-1.055 1.156-2 1.156h-12c-.945 0-1.375-.532-2-1.156l-5.833-5.844c-.584-.583-1.167-1.04-1.167-2v-12c0-.96.583-1.417 1.167-2l5.833-5.844c.625-.624 1.055-1.156 2-1.156h12c.945 0 1.375.532 2 1.156l5.833 5.844c.584.583 1.167 1.04 1.167 2z" fill="#b41b13"/><path d="m29.833 8-5.833-5.844c-.625-.624-1.055-1.156-2-1.156h-12c-.945 0-1.375.532-2 1.156l-5.833 5.844c-.584.583-1.167 1.04-1.167 2v12c0 .96.583 1.417 1.167 2l5.833 5.844c.625.624 1.055 1.156 2 1.156h12c.945 0 1.375-.532 2-1.156l5.833-5.844c.584-.583 1.167-1.04 1.167-2v-12c0-.96-.583-1.417-1.167-2zm-.833 14c-.027.043-.231.243-.381.389l-6.21 6.219c-.136.138-.314.321-.409.392h-12c-.049-.026-.257-.238-.409-.393l-6.21-6.219c-.15-.145-.336-.309-.381-.388v-12c.027-.043.231-.243.381-.389l6.21-6.219c.152-.154.329-.345.409-.392h12c.049.026.257.238.409.393l6.21 6.219c.15.145.336.309.381.388z" fill="#98120a"/></g><path d="m20.416 16 3.314-3.314c.17-.201.27-.401.27-.686s-.1-.485-.271-.686l-3.043-3.043c-.201-.171-.401-.271-.686-.271s-.485.1-.686.271l-3.314 3.313-3.314-3.314c-.201-.17-.401-.27-.686-.27s-.485.1-.686.271l-3.043 3.043c-.171.201-.271.401-.271.686s.1.485.271.686l3.313 3.314-3.314 3.314c-.17.201-.27.401-.27.686s.1.485.271.686l3.043 3.043c.201.171.401.271.686.271s.485-.1.686-.271l3.314-3.313 3.314 3.314c.201.17.401.27.686.27s.485-.1.686-.271l3.043-3.043c.171-.201.271-.401.271-.686s-.1-.485-.271-.686z" fill="#fff"/></g></svg>