<svg version="1.1" id="Layer_1" xmlns="http://www.w3.org/2000/svg" xmlns:xlink="http://www.w3.org/1999/xlink" x="0px" y="0px"
	 width="100%" viewBox="0 0 400 400" enable-background="new 0 0 400 400" xml:space="preserve">
<path fill="#000000" opacity="1.000000" stroke="none" 
	d="
M26.136589,178.276642 
	C34.611500,164.020798 45.080811,152.080093 58.686428,143.107300 
	C61.232941,141.427902 61.498569,139.628708 61.019028,136.813034 
	C57.349434,115.266624 59.480396,94.388580 68.348839,74.249260 
	C69.832565,70.879852 71.982063,68.851257 75.194878,67.529243 
	C94.426308,59.615795 114.318497,56.721672 134.885422,60.244858 
	C139.431808,61.023670 142.156036,60.339043 144.899368,56.352730 
	C156.853363,38.982445 172.959656,26.766970 192.598846,19.104111 
	C196.254044,17.677921 199.486130,17.719969 203.150787,19.222197 
	C223.102493,27.400854 239.639160,39.815014 251.523239,57.957321 
	C253.705872,61.289352 256.288879,60.924126 259.305573,60.393936 
	C280.247528,56.713326 300.410889,59.444679 319.987732,67.549385 
	C323.485077,68.997261 325.559570,71.161278 327.040253,74.655853 
	C335.511993,94.650375 338.449188,115.260208 334.265533,136.664413 
	C333.601624,140.061035 334.696930,141.772095 337.328613,143.595795 
	C354.918427,155.785278 367.611298,171.907303 375.748779,191.707321 
	C377.325745,195.544281 377.263184,198.923767 375.712250,202.738098 
	C367.715210,222.405472 355.216187,238.506500 337.779663,250.591263 
	C334.146881,253.109055 333.866150,255.980194 334.527740,259.600861 
	C338.392303,280.750610 335.265808,300.973022 326.665833,320.535156 
	C325.350586,323.526917 323.390686,325.207703 320.470428,326.526794 
	C300.370117,335.606110 279.402557,337.318695 257.886230,333.961731 
	C254.582489,333.446289 253.051910,334.595306 251.371277,336.996979 
	C239.112244,354.515350 223.071442,367.299011 203.251770,375.415405 
	C199.413147,376.987366 196.012253,376.969452 192.225891,375.388641 
	C173.009399,367.365753 156.921494,355.365265 144.987839,338.193451 
	C142.370544,334.427338 139.939026,333.363007 135.172668,334.220947 
	C113.550667,338.112823 92.767326,334.707001 72.833679,325.623108 
	C70.674889,324.639343 69.548157,323.067535 68.647659,320.977844 
	C60.204926,301.385468 56.800064,281.109924 60.742825,259.974457 
	C61.668484,255.012405 60.383183,252.269135 56.177185,249.346100 
	C38.715149,237.210510 26.596014,220.807877 19.138247,200.897552 
	C17.835756,197.420242 18.628292,194.355286 20.027643,191.272751 
	C21.955481,187.026077 23.977230,182.822052 26.136589,178.276642 
M148.931412,208.577713 
	C152.228867,208.964615 155.526123,209.353088 158.823837,209.737747 
	C160.404419,209.922134 162.380188,209.269547 163.191650,211.275314 
	C163.961029,213.177078 162.380203,214.328323 161.368515,215.602829 
	C154.090271,224.771515 147.497864,234.356873 143.790451,245.597397 
	C143.109344,247.662415 141.473526,249.790543 143.361526,252.695908 
	C158.628952,249.190506 170.990524,240.043060 183.934708,230.049225 
	C185.928650,246.807632 188.680252,262.024414 197.690689,276.249329 
	C207.335327,262.103790 208.641388,246.274078 211.592087,229.656647 
	C224.385941,240.898544 237.270584,248.987534 252.630478,252.994217 
	C253.427277,249.297485 251.981857,246.754227 250.985275,244.186279 
	C246.975128,233.853073 241.323715,224.478119 234.209625,215.976440 
	C233.080917,214.627594 231.190598,213.368790 232.198318,211.294052 
	C233.042969,209.555038 235.021057,209.876007 236.662521,209.728912 
	C248.694626,208.650879 260.324646,206.027267 271.197266,200.585800 
	C272.916229,199.725510 274.966278,199.214401 275.976929,196.734909 
	C262.366760,188.288025 247.096710,185.296310 229.745117,183.475235 
	C241.489426,170.601059 249.359589,157.509384 253.950974,141.476959 
	C236.750946,144.728165 224.519882,154.519562 211.229660,164.443390 
	C208.931107,147.855148 207.156769,132.324814 197.725174,118.231735 
	C188.615311,132.450027 185.950104,147.827255 183.911560,164.308868 
	C170.611404,154.488312 158.745209,144.421432 142.047638,141.766342 
	C145.067474,158.301270 155.091339,170.336182 164.777496,183.709137 
	C147.881256,185.293808 132.955261,188.432755 118.788773,197.249084 
	C128.180191,203.692139 138.049667,206.269974 148.931412,208.577713 
M127.507851,98.243561 
	C128.548264,89.698387 132.505569,81.891930 134.340591,73.634560 
	C133.394318,73.124969 132.985825,72.756409 132.528595,72.680206 
	C115.377403,69.821854 98.765503,71.661728 82.687630,78.352081 
	C80.463783,79.277458 79.430672,80.938110 78.562836,83.015144 
	C72.264099,98.090225 70.515099,113.707649 72.700813,129.845764 
	C73.139999,133.088409 74.383110,134.216263 77.697739,132.933960 
	C91.630836,127.543739 106.096375,124.885094 121.041611,125.098518 
	C124.487694,125.147728 125.840042,123.846535 125.684456,120.392441 
	C125.362160,113.236916 125.919083,106.123344 127.507851,98.243561 
M323.095428,109.196907 
	C322.693939,106.240646 322.541992,103.224678 321.851349,100.337585 
	C316.360748,77.385437 317.860229,78.386940 294.674133,72.896278 
	C283.588470,70.271095 272.343750,70.655037 260.668304,73.524063 
	C262.272736,77.984192 263.848511,81.968307 265.143860,86.041618 
	C268.700012,97.224426 270.145081,108.720787 270.047089,120.440414 
	C270.028503,122.662071 269.517639,125.485245 273.260620,125.312317 
	C288.597473,124.603767 303.320862,127.461571 317.548523,133.038300 
	C320.851318,134.332870 322.250885,133.071503 322.639709,129.937790 
	C323.458313,123.340584 324.269226,116.740067 323.095428,109.196907 
M108.875435,322.671631 
	C117.261200,322.576874 125.736488,323.633789 134.140976,320.970764 
	C134.043060,320.070282 134.109146,319.384827 133.885727,318.812317 
	C128.207382,304.261444 125.109238,289.238403 125.649826,273.565857 
	C125.794479,269.372192 123.139725,269.128052 120.059258,269.241089 
	C105.914330,269.760254 92.225342,267.505127 79.119461,262.150269 
	C75.061462,260.492249 73.341042,261.541351 72.749397,265.828857 
	C70.562263,281.678436 72.650063,296.943115 78.541756,311.756439 
	C79.392548,313.895538 80.810509,315.227692 82.967094,316.144531 
	C90.986229,319.553558 99.403198,321.333221 108.875435,322.671631 
M266.195007,305.438019 
	C265.056580,308.731049 263.929596,312.028076 262.777283,315.316223 
	C260.691803,321.267212 260.848572,321.933258 267.050751,322.468170 
	C282.644379,323.813110 297.911469,322.307495 312.503906,316.157745 
	C314.614105,315.268402 316.005859,313.909454 316.839691,311.689392 
	C322.542206,296.506744 325.089539,280.964294 322.671204,264.772308 
	C322.157806,261.334595 320.789948,260.122070 317.306274,261.594421 
	C303.947540,267.240356 289.997131,269.893433 275.491730,269.183563 
	C271.429535,268.984772 269.877716,270.332642 269.962433,274.555054 
	C270.166382,284.723511 268.939484,294.773804 266.195007,305.438019 
M362.602448,201.061768 
	C363.768494,198.730713 364.042633,196.515228 362.905518,193.931030 
	C357.399719,181.418777 349.862091,170.367249 339.503479,161.419983 
	C336.591705,158.904953 333.964539,155.722488 329.178009,154.419846 
	C323.315643,171.163681 312.775970,184.699478 300.609985,196.700348 
	C300.827179,197.532242 300.806732,197.950989 301.005524,198.144241 
	C312.698456,209.512482 322.229401,222.365814 328.308563,237.620773 
	C329.405975,240.374664 331.027740,239.790588 332.971405,238.316849 
	C345.812134,228.580521 355.645233,216.454041 362.602448,201.061768 
M66.981743,157.541809 
	C65.434929,154.269424 63.523968,155.422974 61.429832,156.990311 
	C48.187824,166.901169 38.497128,179.515778 32.232632,194.826355 
	C31.437733,196.769119 31.793568,198.266525 32.483261,200.030869 
	C37.623917,213.181549 45.922829,224.072800 56.304996,233.469971 
	C58.972733,235.884598 61.468784,238.630249 65.350235,239.592957 
	C65.896927,238.833008 66.497169,238.236099 66.819878,237.514984 
	C73.206261,223.244019 81.420113,210.233246 93.084938,199.641235 
	C95.454163,197.489899 94.459236,195.924026 92.665627,194.298050 
	C81.490501,184.167389 73.624207,171.719681 66.981743,157.541809 
M160.400345,337.116852 
	C169.679672,348.663086 181.647003,356.570221 194.911377,362.776245 
	C197.193024,363.843750 199.095505,363.252167 201.080048,362.339600 
	C210.042877,358.218231 218.531616,353.287231 225.786423,346.556213 
	C231.223801,341.511414 236.696701,336.411316 240.233444,330.001038 
	C239.693069,328.533600 238.700195,328.189392 237.798325,327.817139 
	C223.445511,321.893372 210.819702,313.468689 200.336227,301.952271 
	C197.857895,299.229767 196.097183,300.704010 194.172836,302.705383 
	C184.985947,312.259918 174.725159,320.352570 162.493973,325.734741 
	C154.032761,329.457977 154.040817,329.476288 160.400345,337.116852 
M174.441528,43.963047 
	C167.007431,49.818352 159.982819,56.044479 155.130447,64.700508 
	C156.323105,65.454765 157.091965,66.071304 157.960617,66.470909 
	C172.012283,72.935081 184.857422,81.116615 195.247421,92.755707 
	C197.602875,95.394318 199.128647,94.035599 200.861771,92.050163 
	C210.465591,81.048256 222.544022,73.492332 235.616806,67.382103 
	C240.444427,65.125671 240.771042,64.341446 237.510834,60.199196 
	C230.114502,50.801819 221.000458,43.397675 210.995926,36.914036 
	C202.383850,31.332798 194.035721,30.068224 185.341766,36.548786 
	C182.012619,39.030369 178.462540,41.215584 174.441528,43.963047 
M265.936523,248.766403 
	C267.358185,251.433212 265.644012,256.114502 270.549103,256.531616 
	C285.955658,257.841705 300.712433,255.236023 314.826508,248.901794 
	C317.481964,247.710052 318.073730,246.155807 317.004395,243.369873 
	C311.634491,229.379578 303.023376,217.718658 291.990784,207.716568 
	C289.969849,205.884399 288.189240,205.754105 285.751678,207.159393 
	C277.073578,212.162460 268.068390,216.455353 258.189880,218.622345 
	C254.559570,219.418701 253.639633,221.034958 255.735641,224.615082 
	C260.034058,231.957077 263.363892,239.779068 265.936523,248.766403 
M163.686859,83.833115 
	C159.945145,82.016678 156.155151,80.292068 152.475220,78.358101 
	C148.762497,76.406914 146.794724,77.507050 145.313400,81.343781 
	C140.271927,94.401611 137.811707,107.824860 138.142944,121.854736 
	C138.242615,126.076080 139.941528,127.666412 143.714828,128.598755 
	C152.952087,130.881165 161.928024,134.028000 170.072830,139.026474 
	C173.889999,141.369064 175.106003,140.257751 176.186554,136.355148 
	C178.770767,127.021774 182.403519,118.053215 187.556595,109.821312 
	C189.424896,106.836716 188.927155,104.862930 186.727493,102.372597 
	C180.255676,95.045479 172.665848,89.171227 163.686859,83.833115 
M256.828979,285.752655 
	C257.946198,280.797119 257.513031,275.830475 257.048279,270.843323 
	C256.808777,268.272949 255.507797,266.985840 253.085434,266.467316 
	C243.055908,264.320251 233.732285,260.351593 224.937759,255.162979 
	C221.534424,253.155075 220.013138,253.732208 219.125153,257.692322 
	C216.922684,267.514526 213.004044,276.699127 207.688629,285.241058 
	C206.196564,287.638855 206.403976,289.369202 208.240570,291.436371 
	C218.258224,302.711700 230.002136,311.449097 244.288406,316.611450 
	C246.552887,317.429749 247.941589,317.257019 249.029221,314.836151 
	C253.078094,305.823792 256.197693,296.582672 256.828979,285.752655 
M109.620651,207.220825 
	C107.343155,205.328247 105.552887,206.188950 103.494476,207.886703 
	C92.297211,217.122009 84.761223,228.906555 78.936287,242.018082 
	C77.137909,246.066101 78.247292,247.948532 82.104073,249.580109 
	C95.378654,255.195862 109.135330,257.555054 123.515312,256.721527 
	C126.550446,256.545593 127.986359,255.307205 128.684235,252.460098 
	C131.153168,242.387680 134.733704,232.737167 140.013672,223.763794 
	C140.596466,222.773300 141.229492,221.754074 140.659241,219.893585 
	C130.322189,216.915085 119.723129,213.534210 109.620651,207.220825 
M258.089447,175.569931 
	C267.677216,178.009201 276.515656,182.222656 285.056580,187.094284 
	C287.427673,188.446747 289.321564,189.011520 291.737152,186.886734 
	C302.799713,177.156021 311.109558,165.543243 316.776886,151.942062 
	C318.508911,147.785400 317.152802,145.968842 313.210663,144.601303 
	C301.352905,140.487885 289.369507,137.521179 276.654572,138.065262 
	C268.251251,138.424835 268.262024,138.177826 265.962341,146.013626 
	C265.401367,147.925079 264.604736,149.766068 263.990723,151.663483 
	C261.492676,159.382858 257.446381,166.424698 253.727219,173.811295 
	C255.292938,174.468353 256.345947,174.910263 258.089447,175.569931 
M207.569397,109.068001 
	C212.927536,117.780441 216.749725,127.150993 219.214020,137.049133 
	C220.023880,140.302109 221.171967,141.349396 224.316528,139.444794 
	C232.924377,134.231216 242.290237,130.804565 252.026489,128.456482 
	C255.486282,127.622078 256.939819,125.941620 257.204895,122.374779 
	C258.302063,107.610970 255.116714,93.716393 249.344238,80.249886 
	C248.004074,77.123444 246.046677,77.056473 243.354828,78.204208 
	C230.180496,83.821442 218.372940,91.397575 208.842224,102.225990 
	C207.316528,103.959412 205.659760,105.824661 207.569397,109.068001 
M138.459320,285.953735 
	C140.033997,295.300018 141.843613,304.564117 145.380219,313.443726 
	C146.823685,317.067963 148.523682,317.745270 152.123901,316.338287 
	C163.960068,311.712616 174.029907,304.488281 183.180923,295.872864 
	C189.708328,289.727539 189.631561,289.647644 185.533112,281.499847 
	C185.234161,280.905518 184.993942,280.280670 184.679031,279.695526 
	C180.264572,271.492706 177.391968,262.652527 174.319794,253.207748 
	C166.948944,257.124329 160.055038,260.672577 152.843292,263.580170 
	C148.170959,265.463928 141.545563,264.431396 139.063995,269.278595 
	C136.701981,273.892242 138.405594,279.740234 138.459320,285.953735 
M132.042450,153.268753 
	C130.913025,149.615829 129.627182,146.001785 128.706558,142.296982 
	C128.040009,139.614609 126.670837,138.425705 123.893929,138.241074 
	C109.355377,137.274353 95.364853,139.538574 81.804100,144.836029 
	C78.066681,146.296036 77.086433,148.355484 78.728905,152.102905 
	C84.490547,165.248489 92.202469,176.955353 103.021339,186.538788 
	C105.408478,188.653336 107.325035,188.791565 110.084137,187.145447 
	C118.694084,182.008621 127.785202,177.904526 137.557159,175.423630 
	C138.780273,175.113083 140.231216,174.950134 141.155731,173.078812 
	C138.047714,167.024063 134.453079,160.834915 132.042450,153.268753 
z"/>
</svg>