<svg id="Capa_1" enable-background="new 0 0 512.001 512.001" height="512" viewBox="0 0 512.001 512.001" width="512" xmlns="http://www.w3.org/2000/svg"><g><g><g><g><path d="m66.68 416.995v-370.753c0-25.539 20.719-46.242 46.277-46.242h286.208c25.559 0 46.278 20.703 46.278 46.242v330.816l-9.426 39.937z" fill="#457899"/><path d="m399.165 0h-143.104v416.995h179.955l9.426-39.937v-330.816c.001-25.539-20.719-46.242-46.277-46.242z" fill="#2b495d"/></g><g><path d="m327.661 120.124h-41.545v-45.89c0-7.803-6.33-14.128-14.139-14.128h-31.83c-7.809 0-14.139 6.326-14.139 14.128v45.891h-41.545c-7.809 0-14.139 6.326-14.139 14.128v31.806c0 7.803 6.33 14.128 14.139 14.128h41.545v116.381c0 7.803 6.33 14.128 14.139 14.128h31.83c7.809 0 14.139-6.326 14.139-14.128v-116.381h41.545c7.809 0 14.139-6.326 14.139-14.128v-31.806c0-7.803-6.331-14.129-14.139-14.129z" fill="#f4da90"/><path d="m327.661 120.124h-41.545v-45.89c0-7.803-6.33-14.128-14.139-14.128h-15.915v250.591h15.915c7.809 0 14.139-6.326 14.139-14.128v-116.382h41.545c7.809 0 14.139-6.326 14.139-14.128v-31.806c0-7.803-6.331-14.129-14.139-14.129z" fill="#e7aa60"/></g></g><g><g><path d="m445.443 348.802h-312.17c-36.846 0-66.715 29.846-66.715 66.664 0 36.817 29.869 66.664 66.715 66.664h297.169c8.284 0 15-6.711 15-14.988v-13.268l-9.426-36.878 9.426-39.937v-28.257z" fill="#2b495d"/><path d="m445.443 348.802h-189.382v133.328h174.381c8.284 0 15-6.711 15-14.988v-13.268l-9.426-36.878 9.426-39.937v-28.257z" fill="#182831"/></g><g><path d="m94.837 415.466c0 21.212 17.208 38.407 38.436 38.407h312.17v-76.814h-312.17c-21.228-.001-38.436 17.195-38.436 38.407z" fill="#fbf4f4"/><path d="m256.061 377.058h189.382v76.814h-189.382z" fill="#eae0db"/></g></g></g><g><path d="m193.794 510.258-16.633-11.247-16.633 11.247c-4.556 3.081-10.924 2.006-13.835-2.66-.945-1.514-1.499-3.313-1.499-5.275l-.023-77.872c0-5.519 4.474-9.992 9.992-9.992h43.943c5.523 0 10 4.477 10 10l.023 77.865c0 1.962-.554 3.76-1.499 5.275-2.913 4.665-9.28 5.74-13.836 2.659z" fill="#de5958"/><path d="m199.113 414.459h-21.975l.023 84.553 16.633 11.247c4.556 3.081 10.923 2.006 13.835-2.66.945-1.514 1.499-3.313 1.499-5.275l-.023-77.872c0-5.52-4.474-9.993-9.992-9.993z" fill="#d9225b"/></g></g></svg>