<svg id="Capa_1" enable-background="new 0 0 497 497" height="512" viewBox="0 0 497 497" width="512" xmlns="http://www.w3.org/2000/svg"><path d="m287 352-197 70h-82.5c-4.142 0-7.5 3.358-7.5 7.5v22.5c0 24.853 20.147 45 45 45h287z" fill="#ffd185"/><path d="m287 352v100c0 24.853 20.147 45 45 45h30v-145z" fill="#ffba48"/><path d="m422 0c-41.421 0-75 33.579-75 75v419.429c4.693 1.659 9.739 2.571 15 2.571 24.853 0 45-20.147 45-45v-75l-15-15 15-15v-197l-15-15 15-15v-75l45-45z" fill="#ffd185"/><path d="m135 0c-24.853 0-45 20.147-45 45v45l15 15-15 15v30l15 15-15 15v167l15 15-15 15v45h53.5l15 15 15-15h136c4.142 0 7.5 3.358 7.5 7.5v22.5c0 19.592 12.524 36.25 30 42.429 17.476-6.179 30-22.837 30-42.429v-75l-15-15 15-15v-197l-15-15 15-15v-75c0-24.853 20.147-45 45-45z" fill="#ffe8c2"/><path d="m452 0 15 75h22.5c4.142 0 7.5-3.358 7.5-7.5v-22.5c0-24.853-20.147-45-45-45z" fill="#ff9a42"/><path d="m452 0c-24.853 0-45 20.147-45 45v30h60v-30c0-24.853-6.716-45-15-45z" fill="#ffba48"/></svg>