<svg id="Capa_1" enable-background="new 0 0 512 512" height="512" viewBox="0 0 512 512" width="512" xmlns="http://www.w3.org/2000/svg"><g><path d="m384.336 0h-256.672c-34.696 0-62.822 28.126-62.822 62.822v386.356c0 34.695 28.126 62.822 62.822 62.822h256.673c34.695 0 62.822-28.126 62.822-62.822v-386.356c-.001-34.696-28.127-62.822-62.823-62.822z" fill="#5e54ac"/><path d="m163.286 512h-35.624c-34.696 0-62.82-28.124-62.82-62.82v-386.358c0-34.696 28.124-62.82 62.82-62.82h35.624c-34.686 0-62.82 28.124-62.82 62.82v386.358c0 34.696 28.134 62.82 62.82 62.82z" fill="#524798"/><path d="m405.95 77.037v357.925c0 19.79-16.04 35.83-35.829 35.83h-228.247c-19.779 0-35.83-16.04-35.83-35.83v-357.925c0-19.79 16.05-35.83 35.83-35.83h34.995v1.689c0 20.459 16.586 37.045 37.045 37.045h84.176c20.459 0 37.045-16.586 37.045-37.045v-1.689h34.985c19.791 0 35.83 16.04 35.83 35.83z" fill="#f1f4f6"/><path d="m176.138 470.792h-34.264c-19.779 0-35.83-16.04-35.83-35.83v-357.925c0-19.79 16.05-35.83 35.83-35.83h34.264c-19.779 0-35.83 16.04-35.83 35.83v357.925c0 19.79 16.051 35.83 35.83 35.83z" fill="#f9f6f9"/><path d="m297.11 56.66h-82.22c-4.268 0-7.726-3.459-7.726-7.726s3.459-7.726 7.726-7.726h82.219c4.268 0 7.726 3.459 7.726 7.726s-3.458 7.726-7.725 7.726z" fill="#524798"/><g><path d="m304.046 333.722h-11.926v-78.553c0-10.264-8.321-18.585-18.585-18.585h-65.58c-10.722 0-19.414 8.692-19.414 19.414 0 10.722 8.692 19.414 19.414 19.414h16.798v58.311h-16.798c-10.722 0-19.414 8.692-19.414 19.414 0 10.722 8.692 19.414 19.414 19.414h96.091c10.722 0 19.414-8.692 19.414-19.414-.001-10.723-8.693-19.415-19.414-19.415z" fill="#9dc6fb"/><path d="m246.869 275.409v58.302h-16.803c-10.724 0-19.412 8.702-19.412 19.425 0 5.349 2.179 10.202 5.688 13.724 3.509 3.509 8.362 5.688 13.724 5.688h-22.113c-5.362 0-10.215-2.179-13.724-5.688-3.522-3.522-5.688-8.375-5.688-13.724 0-10.724 8.688-19.425 19.412-19.425h16.803v-58.302h-16.803c-5.362 0-10.215-2.166-13.724-5.688-3.522-3.509-5.688-8.362-5.688-13.724 0-10.724 8.688-19.412 19.412-19.412h22.113c-10.724 0-19.412 8.689-19.412 19.412 0 5.362 2.179 10.215 5.688 13.724 3.509 3.522 8.362 5.688 13.724 5.688z" fill="#80b4fb"/><circle cx="258.436" cy="173.135" fill="#9dc6fb" r="33.683"/><path d="m269.983 204.784c-3.601 1.318-7.488 2.035-11.546 2.035-18.603 0-33.684-15.081-33.684-33.684s15.081-33.684 33.684-33.684c4.057 0 7.945.717 11.546 2.035-12.915 4.71-22.139 17.103-22.139 31.649s9.223 26.94 22.139 31.649z" fill="#80b4fb"/></g></g></svg>